<svg xmlns="http://www.w3.org/2000/svg" width="13.736" height="13.736" viewBox="0 0 13.736 13.736"><defs><style>.a{fill:#fff;stroke:#0b0b0d;stroke-miterlimit:10;stroke-width:0.15px;}</style></defs><g transform="translate(-0.454 -291.104)"><path class="a" d="M7.326,291.179a2.051,2.051,0,0,0-2.042,2.037,2.025,2.025,0,0,0,.561,1.388l-2.37,3.366H1.206a.679.679,0,0,0-.677.682v5.436a.68.68,0,0,0,.677.677H13.439a.679.679,0,0,0,.677-.677v-5.436a.68.68,0,0,0-.677-.682H11.16L8.8,294.613a2.029,2.029,0,0,0-1.47-3.434Zm0,1.359a.68.68,0,0,1,0,1.36.68.68,0,1,1,0-1.36Zm-.257,2.693a2.125,2.125,0,0,0,.257.027,1.876,1.876,0,0,0,.241-.026L9.5,297.97H5.14Zm-5.179,4.1H12.757v4.078H1.889Z"/></g></svg>