<svg xmlns="http://www.w3.org/2000/svg" width="54.915" height="57.278" viewBox="0 0 54.915 57.278"><defs><style>.a{fill:#e9ebef;}.b{fill:#a33d47;}.c{fill:#000072;}.d{opacity:0.6;}.e{fill:#fff;}.f{opacity:0.29;}.g{fill:#0b0b0d;}.h{fill:#e73b47;}.i{fill:#fbf6f2;}.j{opacity:0.3;}.k{fill:#ffc200;}.l{opacity:0.55;}.m{fill:#a2a7bc;}.n{fill:#6a7a92;}.o{fill:#ce7341;}.p{opacity:0.4;}.q{opacity:0.2;}</style></defs><g transform="translate(-4841.504 -873.647)"><g transform="translate(4850.326 926.464)"><ellipse class="a" cx="19.249" cy="2.23" rx="19.249" ry="2.23" transform="translate(0)"/></g><g transform="translate(4869.785 883.36)"><g transform="translate(0)"><g transform="translate(6.188 2.051)"><path class="b" d="M6378.048,1409.545a6.988,6.988,0,0,0-2.619-3.865c-3.445-2.349-5.4.21-5.789-1.017s1.589-1.867,2.278-3.9-.264-5.024-3.01-5.1-1.776,1.616-1.813,3.483-1.693,2.424-2.031,4.236.35,3.958,1.049,4.377S6378.048,1409.545,6378.048,1409.545Z" transform="translate(-6364.906 -1395.587)"/><path class="c" d="M6375.058,1406.577l-.1-.012c-.459-.056-11.259-1.377-11.962-1.8-.757-.453-1.419-2.64-1.082-4.45a4.523,4.523,0,0,1,1.044-2,3.55,3.55,0,0,0,.985-2.222,9.776,9.776,0,0,0-.074-1.207c-.081-.787-.151-1.467.248-1.9a2.176,2.176,0,0,1,1.712-.449,3.117,3.117,0,0,1,2.567,1.368,4.481,4.481,0,0,1,.507,3.828,5.939,5.939,0,0,1-1.466,2.18c-.563.6-1.007,1.068-.812,1.677.128.4.425.342,1.086.175a5.152,5.152,0,0,1,4.675.8,7.126,7.126,0,0,1,2.648,3.908Zm-9.407-13.9a1.917,1.917,0,0,0-1.429.406c-.356.383-.289,1.034-.21,1.787a10,10,0,0,1,.074,1.224,3.711,3.711,0,0,1-1.015,2.306,4.4,4.4,0,0,0-1.017,1.941c-.342,1.835.37,3.916,1.015,4.3.538.322,7.895,1.289,11.8,1.767a6.942,6.942,0,0,0-2.564-3.723,4.967,4.967,0,0,0-4.561-.784c-.628.159-1.082.273-1.256-.269-.221-.689.25-1.187.844-1.818a5.749,5.749,0,0,0,1.436-2.128,4.336,4.336,0,0,0-.489-3.7,2.982,2.982,0,0,0-2.456-1.307Z" transform="translate(-6361.825 -1392.536)"/></g><g class="d" transform="translate(9.018 2.261)"><path class="e" d="M6486.634,1402.094l.41-.251a4.567,4.567,0,0,1,.739-.032c2.745.079,3.7,3.068,3.01,5.1a4.494,4.494,0,0,1-.654,1.229H6490a6.1,6.1,0,0,0,.109-3.946.373.373,0,0,1-.178.293c-.225.115-.563-.1-.756-.471s-.164-.773.061-.888a.29.29,0,0,1,.1-.028A4.5,4.5,0,0,0,6486.634,1402.094Z" transform="translate(-6486.634 -1401.808)"/></g><g class="f" transform="translate(6.425 2.679)"><path class="c" d="M6374.386,1423.038c.022-1.113-.313-2.164-.007-2.816.027.007.059,0,.08.022,2.84,2.576-1.394,6.136-1.045,7.6s4.5,2.545,7.863,3.638c1.467.476,2.29,1.047,3.021-.306a7.243,7.243,0,0,1,1.04,2.265s-11.235-1.371-11.935-1.789-1.385-2.565-1.048-4.377S6374.349,1424.905,6374.386,1423.038Z" transform="translate(-6372.267 -1420.222)"/></g><g transform="translate(5.841 1.701)"><path class="g" d="M6360.035,1391.806a.451.451,0,0,1-.051,0c-2.656-.324-11.38-1.415-12.1-1.846-.955-.572-1.584-3-1.247-4.815a4.866,4.866,0,0,1,1.112-2.153,3.228,3.228,0,0,0,.911-2.015,9.4,9.4,0,0,0-.072-1.163,2.661,2.661,0,0,1,.34-2.172,2.471,2.471,0,0,1,1.979-.561,3.457,3.457,0,0,1,2.845,1.518,4.784,4.784,0,0,1,.552,4.14,6.223,6.223,0,0,1-1.544,2.307c-.568.6-.858.936-.732,1.33a.269.269,0,0,0,.024.058,2.521,2.521,0,0,0,.643-.115,5.462,5.462,0,0,1,4.958.855,7.372,7.372,0,0,1,2.794,4.121.422.422,0,0,1-.412.513Zm-9.319-13.887a1.648,1.648,0,0,0-1.169.294c-.248.267-.188.844-.119,1.512a10.345,10.345,0,0,1,.076,1.267,4,4,0,0,1-1.087,2.514,4.059,4.059,0,0,0-.95,1.791c-.326,1.751.375,3.653.851,3.938.571.274,6.865,1.126,11.119,1.652a6.394,6.394,0,0,0-2.259-3.018,4.657,4.657,0,0,0-4.277-.734c-.625.158-1.4.354-1.676-.5-.284-.886.3-1.507.922-2.165a5.443,5.443,0,0,0,1.358-2,3.966,3.966,0,0,0-.444-3.389,2.641,2.641,0,0,0-2.178-1.157Z" transform="translate(-6346.545 -1377.076)"/></g><g transform="translate(14.445 1.029)"><g transform="translate(0 0)"><circle class="b" cx="1.832" cy="1.832" r="1.832" transform="translate(0 2.591) rotate(-45)"/><path class="c" d="M6758.269,1381.615a1.9,1.9,0,0,1-1.872-2.251h0a1.9,1.9,0,1,1,1.872,2.251Zm-1.732-2.225a1.761,1.761,0,1,0,2.054-1.409,1.764,1.764,0,0,0-2.054,1.409Z" transform="translate(-6755.677 -1377.121)"/></g><g class="f" transform="translate(0.812 1.733)"><path class="c" d="M6764.909,1425.814l0,.008a1.829,1.829,0,0,1-3.053-1.547l.375-.385C6762.116,1426.2,6764.909,1425.814,6764.909,1425.814Z" transform="translate(-6761.849 -1423.889)"/></g><g class="d" transform="translate(1.719 0.722)"><path class="e" d="M6803.1,1380a4.005,4.005,0,0,0-1.266-.465l.074-.079a1.829,1.829,0,0,1,2.149,2.772l-.037-.014a1.911,1.911,0,0,0-.4-1.793.137.137,0,0,1-.017.061c-.063.109-.27.109-.461,0s-.3-.289-.232-.4A.2.2,0,0,1,6803.1,1380Z" transform="translate(-6801.836 -1379.33)"/></g><g transform="translate(0.422 0.421)"><path class="g" d="M6746.793,1370.4a2.17,2.17,0,0,1-2.133-2.566h0a2.169,2.169,0,1,1,2.133,2.566Zm-1.471-2.443a1.495,1.495,0,1,0,1.743-1.2,1.5,1.5,0,0,0-1.743,1.2Z" transform="translate(-6744.624 -1366.058)"/></g></g><g transform="translate(1.569)"><g transform="translate(0.266 0.265)"><path class="b" d="M6174.715,1316.926c-1.973-.187-2.157,1.67-1.134,2.405s2.97,1.621,3.448,1.288S6176.688,1317.113,6174.715,1316.926Z" transform="translate(-6172.898 -1316.841)"/><path class="c" d="M6173.635,1317.683a7.69,7.69,0,0,1-3.184-1.374,1.494,1.494,0,0,1-.559-1.7c.11-.291.5-.955,1.742-.836,1.221.116,2.085,1.38,2.4,2.581.129.492.183,1.077-.054,1.242A.607.607,0,0,1,6173.635,1317.683Zm-2.275-3.778a1.3,1.3,0,0,0-1.334.757,1.35,1.35,0,0,0,.508,1.532c1.1.789,2.961,1.569,3.366,1.288.116-.081.154-.49,0-1.089-.3-1.153-1.124-2.366-2.277-2.475h0C6171.531,1313.909,6171.444,1313.9,6171.36,1313.9Z" transform="translate(-6169.81 -1313.762)"/></g><g class="f" transform="translate(0.462 1.084)"><path class="c" d="M6178.5,1350.238l.211-.363c.287,1.619,3.662,2.633,3.662,2.633l.149.031-.052.249c-.591.2-2.392-.632-3.361-1.33A1.462,1.462,0,0,1,6178.5,1350.238Z" transform="translate(-6178.496 -1349.875)"/></g><g class="d" transform="translate(0.763 0.485)"><path class="e" d="M6195.341,1326.958s-.81-3.6-3.568-3.081a1.384,1.384,0,0,1,1.583-.294A4.083,4.083,0,0,1,6195.341,1326.958Z" transform="translate(-6191.772 -1323.468)"/></g><path class="g" d="M6162.2,1306.512a7.875,7.875,0,0,1-3.348-1.416,1.764,1.764,0,0,1-.652-2.007,1.8,1.8,0,0,1,2.016-1.007c1.349.128,2.294,1.487,2.633,2.778.117.448.253,1.241-.16,1.528A.851.851,0,0,1,6162.2,1306.512Zm.067-.639Zm-2.35-3.131a1.049,1.049,0,0,0-1.086.585,1.094,1.094,0,0,0,.414,1.223,6.671,6.671,0,0,0,3.032,1.294,3.133,3.133,0,0,0-.459-1.763,2.343,2.343,0,0,0-1.667-1.327h0C6160.068,1302.745,6159.99,1302.741,6159.915,1302.741Z" transform="translate(-6158.098 -1302.067)"/></g><g transform="translate(16.187 21.046)"><path class="h" d="M6803.147,2233.815a4.962,4.962,0,1,0,6.3-3.206A5,5,0,0,0,6803.147,2233.815Zm2.2.652a2.676,2.676,0,1,1,1.638,3.525A2.751,2.751,0,0,1,6805.343,2234.468Z" transform="translate(-6802.882 -2230.356)"/></g><g class="d" transform="translate(22.736 21.607)"><path class="e" d="M7092.519,2263.861c.711-.9,3.836-5.325-.781-8.74l.648-.029a5.064,5.064,0,0,1,.133,8.769Z" transform="translate(-7091.738 -2255.092)"/></g><g class="f" transform="translate(16.188 21.048)"><path class="c" d="M6806.255,2240.227a5.04,5.04,0,0,1,3.033-9.607c-.246.64-.5,1.321-.748,2.012a2.835,2.835,0,0,0-1.589,5.409c-.15.91-.119,1.538.2,1.678a8.032,8.032,0,0,0,2.789.274A4.9,4.9,0,0,1,6806.255,2240.227Z" transform="translate(-6802.882 -2230.417)"/></g><g transform="translate(15.681 20.542)"><path class="g" d="M6785.957,2219.176a5.42,5.42,0,0,1-4.869-3.05,5.543,5.543,0,0,1-.275-4.223h0a5.467,5.467,0,1,1,7.612,6.675A5.428,5.428,0,0,1,6785.957,2219.176Zm-4.185-6.952a4.541,4.541,0,0,0,.223,3.458,4.4,4.4,0,0,0,5.971,2,4.5,4.5,0,1,0-6.194-5.454Zm4.165,4.656a3.045,3.045,0,0,1-.969-.159,3.259,3.259,0,0,1-1.958-4.165,3.384,3.384,0,0,1,1.616-1.931,3.076,3.076,0,0,1,4.28,1.43,3.445,3.445,0,0,1-1.486,4.447A3.14,3.14,0,0,1,6785.937,2216.88Zm.174-5.621a2.129,2.129,0,0,0-1.008.258,2.388,2.388,0,0,0-1.135,1.36h0a2.249,2.249,0,0,0,1.32,2.886,2.083,2.083,0,0,0,1.655-.152,2.433,2.433,0,0,0,1.045-3.129,2.081,2.081,0,0,0-1.231-1.117A2.026,2.026,0,0,0,6786.11,2211.259Zm-2.622,1.458h0Z" transform="translate(-6780.52 -2208.1)"/></g><g transform="translate(0.435 10.932)"><path class="h" d="M6115.849,1806.421l5.63,1.882a6.691,6.691,0,0,0,8.467-4.224l3.136-9.385a1.733,1.733,0,0,0-1.094-2.193l-15.034-5.025a1.734,1.734,0,0,0-2.193,1.094l-3.137,9.385A6.691,6.691,0,0,0,6115.849,1806.421Z" transform="translate(-6111.206 -1787.314)"/><path class="c" d="M6120.471,1805.643a6.737,6.737,0,0,1-2.138-.349l-5.63-1.882a6.762,6.762,0,0,1-4.27-8.556l3.137-9.385a1.8,1.8,0,0,1,2.283-1.139l15.034,5.025a1.8,1.8,0,0,1,1.14,2.283l-3.137,9.385A6.773,6.773,0,0,1,6120.471,1805.643Zm-7.192-21.264a1.667,1.667,0,0,0-1.575,1.136l-3.137,9.385a6.62,6.62,0,0,0,4.18,8.377l5.631,1.882a6.617,6.617,0,0,0,8.376-4.18l3.137-9.385a1.664,1.664,0,0,0-1.05-2.1l-15.033-5.025A1.668,1.668,0,0,0,6113.279,1784.38Z" transform="translate(-6108.081 -1784.238)"/></g><g class="f" transform="translate(0.574 22.611)"><path class="c" d="M6133.511,2302.5l-.138-.955c-1.958,5.7-5.11,6.835-13.265,4.745-4.861-1.246-5.6-4.784-5.659-6.936l-.12.667a6.061,6.061,0,0,0,4.89,7.04l7.082,1.276a6.061,6.061,0,0,0,7.04-4.89Z" transform="translate(-6114.231 -2299.35)"/></g><g transform="translate(3.766 10.926)"><path class="i" d="M6257.245,1784.082l15.423,5.155a1.384,1.384,0,0,1,1.081,1.587l-.406,1.214-18.32-6.124.4-1.214A1.384,1.384,0,0,1,6257.245,1784.082Z" transform="translate(-6255.022 -1783.979)"/></g><g class="j" transform="translate(1.889 11.211)"><path class="e" d="M6177.823,1796.724l-4.025,12.449s-1.055,4,.373,5.5a5.14,5.14,0,0,1-1.835-5.155c.643-3.452,4.17-12.993,4.17-12.993Z" transform="translate(-6172.229 -1796.53)"/></g><g transform="translate(0 10.497)"><path class="g" d="M6101.724,1787.331a7.166,7.166,0,0,1-2.275-.372l-5.631-1.882a7.2,7.2,0,0,1-4.543-9.106l3.137-9.385a2.238,2.238,0,0,1,2.833-1.414l15.034,5.025a2.239,2.239,0,0,1,1.414,2.833l-3.137,9.385A7.209,7.209,0,0,1,6101.724,1787.331Zm-7.19-21.263a1.228,1.228,0,0,0-1.163.839l-3.138,9.385a6.187,6.187,0,0,0,3.905,7.827h0l5.631,1.882a6.183,6.183,0,0,0,7.827-3.905l3.137-9.385a1.229,1.229,0,0,0-.775-1.553l-15.034-5.025A1.225,1.225,0,0,0,6094.533,1766.068Z" transform="translate(-6088.899 -1765.056)"/></g></g><g transform="translate(7.974 12.852)"><g transform="translate(0.423 4.467)"><path class="k" d="M6462.634,2071.543l-2.636-.311a.8.8,0,0,1-.7-.883l.316-2.681a1.292,1.292,0,0,1,.778-1.037l1.56-.661,1.362,1.007a1.288,1.288,0,0,1,.515,1.189l-.316,2.681A.794.794,0,0,1,6462.634,2071.543Z" transform="translate(-6459.297 -2065.971)"/></g><g class="l" transform="translate(0.302 4.467)"><path class="e" d="M6457.448,2066.578l-1.5.634a1.292,1.292,0,0,0-.779,1.036l-.317,2.682a.807.807,0,0,0,.028.324l-.22-.026a.8.8,0,0,1-.7-.882l.317-2.681a1.289,1.289,0,0,1,.777-1.037l1.559-.661Z" transform="translate(-6453.961 -2065.967)"/></g><g transform="translate(0 3.983)"><path class="g" d="M6444.481,2051.109a1.292,1.292,0,0,1-.146-.008l-2.635-.312a1.218,1.218,0,0,1-1.066-1.352l.316-2.681a1.718,1.718,0,0,1,1.033-1.376l1.782-.755,1.557,1.15a1.718,1.718,0,0,1,.685,1.579l-.317,2.681a1.217,1.217,0,0,1-1.207,1.075Zm-.046-.849a.372.372,0,0,0,.413-.325l.316-2.681a.869.869,0,0,0-.346-.8l-1.168-.863-1.337.567a.87.87,0,0,0-.522.7l-.316,2.681a.371.371,0,0,0,.325.413Z" transform="translate(-6440.625 -2044.624)"/></g><g transform="translate(2.662 0)"><rect class="g" width="4.448" height="0.847" transform="translate(0 4.417) rotate(-83.264)"/></g><g class="j" transform="translate(0.951 5.087)"><path class="c" d="M6485.078,2093.419l.205.4a2.83,2.83,0,0,1,.281,1.709l-.048.314a1.765,1.765,0,0,1-1.371,1.464l-1.591.346.245.164,2.778.441.63-.53.295-3.42-1.287-1.009Z" transform="translate(-6482.555 -2093.295)"/></g></g></g><g transform="translate(4841.504 873.647)"><g transform="translate(2.642 7.676)"><path class="e" d="M4984.7,1250.723l-10.413,2a4.131,4.131,0,0,1-4.764-2.97l-8.153-29.9,23.424-4.494,3.235,30.879A4.13,4.13,0,0,1,4984.7,1250.723Z" transform="translate(-4961.292 -1215.285)"/><path class="c" d="M4970.26,1249.762a4.216,4.216,0,0,1-4.052-3.088l-8.17-29.963,23.553-4.519,3.243,30.945a4.167,4.167,0,0,1-3.379,4.553l-.011-.059.011.059-10.413,2A4.128,4.128,0,0,1,4970.26,1249.762Zm-12.071-32.957,8.136,29.837a4.089,4.089,0,0,0,4.694,2.927l10.413-2a4.047,4.047,0,0,0,3.282-4.422l-3.229-30.814Z" transform="translate(-4958.038 -1212.192)"/></g><g transform="translate(0.484 2.719)"><path class="m" d="M4890.093,998.29l-26.623,5.108a.407.407,0,0,1-.483-.381l-.15-3.338a1.536,1.536,0,0,1,1.246-1.578l23.481-4.505a1.536,1.536,0,0,1,1.741,1l1.1,3.157A.407.407,0,0,1,4890.093,998.29Z" transform="translate(-4862.835 -993.569)"/></g><g class="j" transform="translate(2.446 6.813)"><path class="e" d="M4949.644,1179.544l1.46-.28-.253-5.13-1.452.278C4949.453,1176.091,4949.531,1177.932,4949.644,1179.544Z" transform="translate(-4949.399 -1174.133)"/></g><g transform="translate(20.891 3.082)"><g class="j"><path class="n" d="M5764.705,1014.924l4.552-.873a.405.405,0,0,0,0-.274l-1.1-3.157a1.537,1.537,0,0,0-1.742-1l-3.474.667h0a1.536,1.536,0,0,1,.968.952l1.1,3.157A.407.407,0,0,1,5764.705,1014.924Z" transform="translate(-5762.949 -1009.588)"/></g></g><g transform="translate(5.496 18.47)"><g transform="translate(0.076 0.072)"><path class="o" d="M5108.944,1691.482l-21.7,4.164,3.049,11.181,19.861-3.81Z" transform="translate(-5087.243 -1691.482)"/></g><path class="c" d="M5086.993,1703.806l-3.081-11.3,21.83-4.188,1.221,11.655-.055.01Zm-2.93-11.2,3.017,11.064,19.751-3.79-1.2-11.413Z" transform="translate(-5083.912 -1688.32)"/></g><g class="l" transform="translate(2.718 12)"><path class="e" d="M4975.541,1435.807l-1.257.241a4.131,4.131,0,0,1-4.763-2.969l-8.153-29.9,1.257-.241,8.153,29.9A4.131,4.131,0,0,0,4975.541,1435.807Z" transform="translate(-4961.367 -1402.937)"/></g><g transform="translate(3.577 0.484)"><path class="m" d="M5014.516,895.073l-11.925,2.288a4.065,4.065,0,0,0-3.3,4.052h0l19.787-3.8h0A4.065,4.065,0,0,0,5014.516,895.073Z" transform="translate(-4999.292 -895)"/></g><g class="p" transform="translate(3.577 0.484)"><path class="e" d="M5000.325,901.218a4.063,4.063,0,0,1,3.228-3.241l11.925-2.288a4.054,4.054,0,0,1,2.447.292,4.063,4.063,0,0,0-3.41-.9l-11.925,2.288a4.065,4.065,0,0,0-3.3,4.052h0Z" transform="translate(-4999.292 -895.003)"/></g><g transform="translate(17.329 0.968)"><g class="j"><path class="n" d="M5611.023,918.636a4.061,4.061,0,0,0-4.426-2.226l-.746.143h0a4.064,4.064,0,0,1,2.906,2.518l3.129-.6h0Z" transform="translate(-5605.851 -916.336)"/></g></g><g transform="translate(2.113 7.173)"><path class="g" d="M4947.474,1228.519a4.641,4.641,0,0,1-4.461-3.4l-8.291-30.4,24.454-4.692,3.292,31.4a4.587,4.587,0,0,1-3.721,5.013l-10.413,2A4.573,4.573,0,0,1,4947.474,1228.519Zm-11.543-33.05,8.016,29.4a3.664,3.664,0,0,0,4.205,2.621l10.413-2a3.626,3.626,0,0,0,2.941-3.962l-3.182-30.355Z" transform="translate(-4934.722 -1190.024)"/></g><g transform="translate(21.17 7.926)"><g class="q"><path class="n" d="M5779.087,1257.221a4.13,4.13,0,0,0,3.3-4.48l-3.09-29.488-4.039.775,4.547,30.187A4.115,4.115,0,0,1,5779.087,1257.221Z" transform="translate(-5775.259 -1223.253)"/></g></g><g transform="translate(0 2.236)"><path class="g" d="M4842.545,983.06a.89.89,0,0,1-.889-.85l-.15-3.338a2.03,2.03,0,0,1,1.638-2.074l23.481-4.505a2.031,2.031,0,0,1,2.289,1.321l1.1,3.156a.89.89,0,0,1-.672,1.166h0l-26.624,5.108A.889.889,0,0,1,4842.545,983.06ZM4867,973.224a1.043,1.043,0,0,0-.2.019l-23.482,4.505a1.059,1.059,0,0,0-.853,1.081l.146,3.249L4869.066,977,4868,973.931A1.06,1.06,0,0,0,4867,973.224Z" transform="translate(-4841.504 -972.256)"/></g><g transform="translate(3.094 0)"><path class="g" d="M4977.965,881.128l-.009-.576a4.542,4.542,0,0,1,3.691-4.534l11.925-2.288a4.542,4.542,0,0,1,5.106,2.846l.206.539Zm15.79-6.448-11.925,2.288a3.574,3.574,0,0,0-2.867,2.984l18.559-3.561a3.576,3.576,0,0,0-3.767-1.711Z" transform="translate(-4977.956 -873.647)"/></g><g transform="translate(5.012 18.01)"><path class="g" d="M5065.859,1684.426l-3.285-12.048,22.655-4.347,1.3,12.428Zm-2.166-11.35,2.813,10.314,19.05-3.655-1.115-10.64Z" transform="translate(-5062.574 -1668.032)"/></g><g transform="translate(14.336 23.04)"><g transform="translate(0.711 0.734)"><path class="e" d="M5505.211,1927.575a1.5,1.5,0,0,0,.363.222c1.138.492,2.707-.487,3.5-2.186a3.627,3.627,0,0,0,.087-3.358,2.18,2.18,0,0,0-1.527,1.925C5507.584,1925.011,5507.435,1927.5,5505.211,1927.575Z" transform="translate(-5505.211 -1922.253)"/></g><path class="e" d="M5474.044,1895.213a.442.442,0,0,1,.364-.168c.741.012,1.52-.278,1.658-2.568a3,3,0,0,1,1.673-2.511c-1.132-.432-2.66.541-3.442,2.21A3.9,3.9,0,0,0,5474.044,1895.213Z" transform="translate(-5473.841 -1889.864)"/></g></g></g></svg>