<svg xmlns="http://www.w3.org/2000/svg" width="15" height="13.145" viewBox="0 0 15 13.145"><defs><style>.a{fill:none;stroke:#0b0b0d;stroke-linecap:round;stroke-linejoin:round;stroke-miterlimit:10;}</style></defs><g transform="translate(-21.5 -289.5)"><g transform="translate(22 290)"><path class="a" d="M18.986,160.72c1.19,0,1.995-1.61,2.1-1.995.035-.07.14-.07.21-.245.525-1.015-.07-1.19-.07-1.19a4.692,4.692,0,0,0-.105-1.19,2.1,2.1,0,0,0-2.135-1.4,2.1,2.1,0,0,0-2.135,1.4,4.618,4.618,0,0,0-.1,1.19s-.595.245-.1,1.19c.07.14.175.1.245.245C16.991,159.145,17.8,160.72,18.986,160.72Z" transform="translate(-12.091 -153.16)"/><path class="a" d="M16.611,171a4.8,4.8,0,0,0,1.33.735c1.715.665,2.1,2.31,2.065,4.165H10.7c-.035-1.995.385-3.43,2.135-4.095a3.894,3.894,0,0,0,1.295-.77" transform="translate(-8.351 -163.755)"/><path class="a" d="M6.45,160.345H4c0-1.4-.035-2.9,1.68-3.57a8.725,8.725,0,0,0,1.61-.84,4.787,4.787,0,0,1-1.295-1.61c-.035-.105-.175-.105-.245-.245-.525-.945.1-1.19.1-1.19a4.692,4.692,0,0,1,.1-1.19,2.1,2.1,0,0,1,2.135-1.4,2.086,2.086,0,0,1,2.1,1.54" transform="translate(-4 -150.3)"/><path class="a" d="M29.98,160.345h2.45c0-1.4-.035-2.9-1.785-3.57a7.841,7.841,0,0,1-1.61-.875,3.233,3.233,0,0,0,1.295-1.575c.035-.105.175-.105.245-.245.525-.945-.105-1.19-.105-1.19a4.692,4.692,0,0,0-.1-1.19,2.1,2.1,0,0,0-2.135-1.4,1.97,1.97,0,0,0-2.03,1.54" transform="translate(-18.43 -150.3)"/></g></g></svg>