<svg xmlns="http://www.w3.org/2000/svg" width="18.882" height="24.935" viewBox="0 0 18.882 24.935"><defs><style>.a{fill:#1170fe;}</style></defs><g transform="translate(-6.412 -0.846)"><path class="a" d="M28.4,14.989a21.85,21.85,0,0,0-2.257-2.2.975.975,0,0,0-1.612.806,25.763,25.763,0,0,1-3.063,13.221A.4.4,0,0,0,22,27.35a13.749,13.749,0,0,1,1.72-.645,1.951,1.951,0,0,0,1.021-.7,18.371,18.371,0,0,0,4.031-9.727A1.835,1.835,0,0,0,28.4,14.989Z" transform="translate(-6.942 -5.408)"/><path class="a" d="M14.037,4.8A3.24,3.24,0,0,0,12.371,2.81,36.6,36.6,0,0,0,8.125.929,1.238,1.238,0,0,0,6.513,2.541c2.042,5,3.493,12.415,1.29,22.25a.8.8,0,0,0,1.29.806c.645-.484,1.236-.914,1.827-1.344a5.066,5.066,0,0,0,1.774-2.2C15.649,14.9,15.381,9.1,14.037,4.8Z" transform="translate(0 0)"/><path class="a" d="M36.036,25.854c-.269-.537-.537-1.021-.806-1.5a.554.554,0,0,0-1.021.107,22.917,22.917,0,0,1-4.246,6.718c-.107.161,0,.376.161.322.376-.054.7-.054,1.075-.107a.764.764,0,0,0,.322-.107,18.382,18.382,0,0,0,4.407-4.138A1.239,1.239,0,0,0,36.036,25.854Z" transform="translate(-10.874 -10.737)"/></g></svg>